<svg xmlns="http://www.w3.org/2000/svg" xmlns:xlink="http://www.w3.org/1999/xlink" viewBox="0 0 195.42 105.14"><defs><radialGradient id="radial-gradient" cx="95.59" cy="66.4" r="92.94" gradientTransform="translate(0 22.2) scale(1 0.67)" gradientUnits="userSpaceOnUse"><stop offset="0" stop-color="#bf3000"/><stop offset="0.41" stop-color="#bf3202"/><stop offset="0.55" stop-color="#c13709"/><stop offset="0.66" stop-color="#c44114"/><stop offset="0.74" stop-color="#c84e25"/><stop offset="0.82" stop-color="#ce603b"/><stop offset="0.88" stop-color="#d57656"/><stop offset="0.92" stop-color="#db8a6f"/><stop offset="0.93" stop-color="#de937a"/><stop offset="0.95" stop-color="#e5ab98"/><stop offset="0.98" stop-color="#f1d3c8"/><stop offset="1" stop-color="#fff"/></radialGradient><radialGradient id="radial-gradient-2" cx="97.71" cy="57.52" r="96.78" gradientTransform="translate(0 24.59) scale(1 0.57)" xlink:href="#radial-gradient"/><radialGradient id="Áåçûìÿííûé_ãðàäèåíò_163" cx="40.3" cy="78.54" r="72.99" gradientUnits="userSpaceOnUse"><stop offset="0" stop-color="#ffbd00"/><stop offset="1" stop-color="#ff772c"/></radialGradient><linearGradient id="Áåçûìÿííûé_ãðàäèåíò_169" x1="98.36" y1="100.97" x2="96.55" y2="-3.81" gradientUnits="userSpaceOnUse"><stop offset="0" stop-color="#fc0"/><stop offset="1" stop-color="#ff9700"/></linearGradient><linearGradient id="Áåçûìÿííûé_ãðàäèåíò_172" x1="98.38" y1="-4.61" x2="98.83" y2="48.09" gradientUnits="userSpaceOnUse"><stop offset="0" stop-color="#ff9840"/><stop offset="0.1" stop-color="#ef8e3c"/><stop offset="0.29" stop-color="#c57531"/><stop offset="0.55" stop-color="#814d20"/><stop offset="0.88" stop-color="#241609"/><stop offset="1"/></linearGradient><linearGradient id="Áåçûìÿííûé_ãðàäèåíò_228" x1="10.7" y1="21.02" x2="187.25" y2="21.02" gradientUnits="userSpaceOnUse"><stop offset="0" stop-color="#23786e"/><stop offset="0.18" stop-color="#1e685f"/><stop offset="0.54" stop-color="#123e39"/><stop offset="1"/></linearGradient><linearGradient id="Áåçûìÿííûé_ãðàäèåíò_228-2" x1="106.75" y1="83.13" x2="148.99" y2="4.09" xlink:href="#Áåçûìÿííûé_ãðàäèåíò_228"/><radialGradient id="Áåçûìÿííûé_ãðàäèåíò_168" cx="28.45" cy="50.48" r="6.05" gradientUnits="userSpaceOnUse"><stop offset="0" stop-color="#00b359"/><stop offset="0.13" stop-color="#009148"/><stop offset="0.34" stop-color="#005e2f"/><stop offset="0.54" stop-color="#00351a"/><stop offset="0.73" stop-color="#00180c"/><stop offset="0.89" stop-color="#000603"/><stop offset="1"/></radialGradient><radialGradient id="Áåçûìÿííûé_ãðàäèåíò_168-2" cx="163.43" cy="73.45" r="6.05" xlink:href="#Áåçûìÿííûé_ãðàäèåíò_168"/><radialGradient id="Áåçûìÿííûé_ãðàäèåíò_168-3" cx="139.55" cy="26.77" r="6.05" xlink:href="#Áåçûìÿííûé_ãðàäèåíò_168"/><radialGradient id="Áåçûìÿííûé_ãðàäèåíò_168-4" cx="154.88" cy="64.9" r="1.78" xlink:href="#Áåçûìÿííûé_ãðàäèåíò_168"/><radialGradient id="Áåçûìÿííûé_ãðàäèåíò_168-5" cx="22.4" cy="66.18" r="1.78" xlink:href="#Áåçûìÿííûé_ãðàäèåíò_168"/><radialGradient id="Áåçûìÿííûé_ãðàäèåíò_168-6" cx="44.5" cy="31" r="1.78" xlink:href="#Áåçûìÿííûé_ãðàäèåíò_168"/><radialGradient id="Áåçûìÿííûé_ãðàäèåíò_168-7" cx="153.11" cy="80.97" r="1.78" xlink:href="#Áåçûìÿííûé_ãðàäèåíò_168"/><radialGradient id="Áåçûìÿííûé_ãðàäèåíò_168-8" cx="168.76" cy="63.12" r="1.78" xlink:href="#Áåçûìÿííûé_ãðàäèåíò_168"/><radialGradient id="Áåçûìÿííûé_ãðàäèåíò_168-9" cx="38.28" cy="73.02" r="1.78" xlink:href="#Áåçûìÿííûé_ãðàäèåíò_168"/></defs><g style="isolation:isolate"><g id="Layer_2" data-name="Layer 2"><g id="Layer_2-2" data-name="Layer 2"><path d="M195.16,69.79c-2,17.19-17.73,25.51-32.81,29.64-18.28,5-37.36,5.84-56.21,5.7-18.22-.13-37-.09-55.4-1.37-11.46-.8-24-2.28-34.46-7.64h0a41.67,41.67,0,0,1-7.62-5A22.54,22.54,0,0,1,.62,78C-.73,71.49.34,64.3,1.78,57.2,5.12,40.75,13.31,24.89,28.69,16.84,42,9.89,58.58,7.13,73.27,5.11,92.54,2.47,112.36,1.72,131.59,5c16.07,2.77,32.88,7.86,44.89,19.7,8.1,8,15.13,19.19,17.81,30.89A42.09,42.09,0,0,1,195.16,69.79Z" style="mix-blend-mode:screen;opacity:0.51;fill:url(#radial-gradient)"/><path d="M195.16,67c-2,17.18-17.73,25.51-32.81,29.63-18.28,5-37.36,5.84-56.21,5.7-18.22-.13-37-.08-55.4-1.37-14.42-1-30.54-3.08-42.09-12.59a22.54,22.54,0,0,1-8-13.15C-.73,68.66.34,61.47,1.78,54.38A70.87,70.87,0,0,1,10.7,31.07,46.82,46.82,0,0,1,28.69,14C42,7.06,58.58,4.3,73.27,2.28c19.27-2.64,39.09-3.39,58.32-.07,16.07,2.77,32.88,7.86,44.89,19.7a69.49,69.49,0,0,1,10.77,13.78C192.94,45.23,196.41,56.35,195.16,67Z" style="mix-blend-mode:screen;opacity:0.39;fill:url(#radial-gradient-2)"/><path d="M183.09,67.23c-1.77,14.91-15.53,22.14-28.75,25.71-16,4.35-32.73,5.06-49.25,5-16-.12-32.43-.07-48.53-1.19C43.93,95.82,29.81,94,19.69,85.78a19.42,19.42,0,0,1-7-11.41c-1.2-5.65-.24-11.89,1-18.05A63.63,63.63,0,0,1,19,40.58c4-8,9.92-14.94,18.26-19.26,11.63-6,26.19-8.43,39.06-10.18,16.88-2.29,34.23-2.94,51.09-.06,14.09,2.41,28.82,6.82,39.34,17.09a60,60,0,0,1,11.81,16.31C182.07,51.69,184,59.62,183.09,67.23Z" style="fill:url(#Áåçûìÿííûé_ãðàäèåíò_163)"/><path d="M183.09,64.41c-1.77,14.91-15.53,22.13-28.75,25.7-16,4.36-32.73,5.06-49.25,5-16-.11-32.43-.07-48.53-1.19C43.93,93,29.81,91.19,19.69,83a19.36,19.36,0,0,1-7-11.41c-1.2-5.65-.24-11.88,1-18A63.57,63.57,0,0,1,19,37.75c4-8,9.92-14.94,18.26-19.26,11.63-6,26.19-8.42,39.06-10.18C93.18,6,110.53,5.37,127.39,8.26c14.09,2.4,28.82,6.81,39.34,17.08a60.14,60.14,0,0,1,11.81,16.31C182.07,48.86,184,56.79,183.09,64.41Z" style="fill:url(#Áåçûìÿííûé_ãðàäèåíò_169)"/><path d="M178.54,41.65c-13.3,12.65-43.25,21.47-78,21.47C62.2,63.12,29.81,52.45,19,37.75c4-8,9.92-14.94,18.26-19.26,11.63-6,26.19-8.42,39.06-10.18C93.18,6,110.53,5.37,127.39,8.26c14.09,2.4,28.82,6.81,39.34,17.08A60.14,60.14,0,0,1,178.54,41.65Z" style="mix-blend-mode:screen;fill:url(#Áåçûìÿííûé_ãðàäèåíò_172)"/><path d="M40,17.16S23.15,24.58,22.07,32.38,45.92,21.09,40,17.16Z" style="fill:#fff"/><path d="M19.8,36.18s-4.5,4.46-3.63,8.23S22.36,38,22,36.86C21.17,33.8,19.8,36.18,19.8,36.18Z" style="fill:#fff"/><path d="M183.09,64.41s-2.41,12.38-9.92,17S183.09,64.41,183.09,64.41Z" style="fill:#fff"/><path d="M187.25,35.69l0,0-10-5.35c-10-5.34-27.3-12.14-79.48,5.76-36.91,12.65-70.52,2.16-87-5A46.82,46.82,0,0,1,28.69,14C42,7.06,58.58,4.3,73.27,2.28c19.27-2.64,39.09-3.39,58.32-.07,16.07,2.77,32.88,7.86,44.89,19.7A69.49,69.49,0,0,1,187.25,35.69Z" style="mix-blend-mode:screen;opacity:0.5;fill:url(#Áåçûìÿííûé_ãðàäèåíò_228)"/><path d="M195.16,69.79c-2,17.19-17.73,25.51-32.81,29.64-18.28,5-37.36,5.84-56.21,5.7-18.22-.13-37-.09-55.4-1.37-11.46-.8-24-2.28-34.46-7.64,22.91,2.55,84.74,7.69,99.19-9,15.37-17.76,65.33-28.79,78.82-31.51A42.09,42.09,0,0,1,195.16,69.79Z" style="mix-blend-mode:screen;opacity:0.5;fill:url(#Áåçûìÿííûé_ãðàäèåíò_228-2)"/><circle cx="28.45" cy="50.48" r="1.46" style="fill:#ffffab"/><circle cx="28.45" cy="50.48" r="6.05" style="mix-blend-mode:screen;fill:url(#Áåçûìÿííûé_ãðàäèåíò_168)"/><circle cx="163.43" cy="73.45" r="1.46" style="fill:#ffffab"/><circle cx="163.43" cy="73.45" r="6.05" style="mix-blend-mode:screen;fill:url(#Áåçûìÿííûé_ãðàäèåíò_168-2)"/><circle cx="139.55" cy="26.77" r="1.46" style="fill:#ffffab"/><circle cx="139.55" cy="26.77" r="6.05" style="mix-blend-mode:screen;fill:url(#Áåçûìÿííûé_ãðàäèåíò_168-3)"/><circle cx="154.88" cy="64.9" r="0.43" style="fill:#ffffab"/><circle cx="154.88" cy="64.9" r="1.78" style="mix-blend-mode:screen;fill:url(#Áåçûìÿííûé_ãðàäèåíò_168-4)"/><circle cx="22.4" cy="66.18" r="0.43" style="fill:#ffffab"/><circle cx="22.4" cy="66.18" r="1.78" style="mix-blend-mode:screen;fill:url(#Áåçûìÿííûé_ãðàäèåíò_168-5)"/><circle cx="44.5" cy="31" r="0.43" style="fill:#ffffab"/><circle cx="44.5" cy="31" r="1.78" style="mix-blend-mode:screen;fill:url(#Áåçûìÿííûé_ãðàäèåíò_168-6)"/><circle cx="153.11" cy="80.97" r="0.43" style="fill:#ffffab"/><circle cx="153.11" cy="80.97" r="1.78" style="mix-blend-mode:screen;fill:url(#Áåçûìÿííûé_ãðàäèåíò_168-7)"/><circle cx="168.76" cy="63.12" r="0.43" style="fill:#ffffab"/><circle cx="168.76" cy="63.12" r="1.78" style="mix-blend-mode:screen;fill:url(#Áåçûìÿííûé_ãðàäèåíò_168-8)"/><circle cx="38.28" cy="73.02" r="0.43" style="fill:#ffffab"/><circle cx="38.28" cy="73.02" r="1.78" style="mix-blend-mode:screen;fill:url(#Áåçûìÿííûé_ãðàäèåíò_168-9)"/><text transform="translate(33.11 65.86)" style="font-size:41.65726852416992px;fill:#fff;font-family:BerlinSansFBDemi-Bold, Berlin Sans FB Demi;font-weight:700">Option</text></g></g></g></svg>