<svg xmlns="http://www.w3.org/2000/svg" xmlns:xlink="http://www.w3.org/1999/xlink" viewBox="0 0 83.83 71.31"><defs><linearGradient id="linear-gradient" x1="42.35" y1="68.67" x2="41.31" y2="5.98" gradientUnits="userSpaceOnUse"><stop offset="0" stop-color="#84e04f"/><stop offset="1" stop-color="#6dd159"/></linearGradient><linearGradient id="Áåçûìÿííûé_ãðàäèåíò_172" x1="42.14" y1="-8.27" x2="42.48" y2="31.49" gradientUnits="userSpaceOnUse"><stop offset="0" stop-color="#ff9840"/><stop offset="0.1" stop-color="#ef8e3c"/><stop offset="0.29" stop-color="#c57531"/><stop offset="0.55" stop-color="#814d20"/><stop offset="0.88" stop-color="#241609"/><stop offset="1"/></linearGradient><linearGradient id="linear-gradient-2" x1="40.19" y1="-7.92" x2="40.19" y2="14.54" gradientUnits="userSpaceOnUse"><stop offset="0" stop-color="#fff"/><stop offset="0.11" stop-color="#f4fbef"/><stop offset="0.33" stop-color="#d6f2c5"/><stop offset="0.64" stop-color="#a6e381"/><stop offset="1" stop-color="#68cf29"/></linearGradient><radialGradient id="Áåçûìÿííûé_ãðàäèåíò_168" cx="156.81" cy="36.23" r="4.57" gradientTransform="translate(-92.75 11.92) scale(0.65 0.64)" gradientUnits="userSpaceOnUse"><stop offset="0" stop-color="#00b359"/><stop offset="0.13" stop-color="#009148"/><stop offset="0.34" stop-color="#005e2f"/><stop offset="0.54" stop-color="#00351a"/><stop offset="0.73" stop-color="#00180c"/><stop offset="0.89" stop-color="#000603"/><stop offset="1"/></radialGradient><radialGradient id="Áåçûìÿííûé_ãðàäèåíò_168-2" cx="253.07" cy="67.64" r="4.57" xlink:href="#Áåçûìÿííûé_ãðàäèåíò_168"/><radialGradient id="Áåçûìÿííûé_ãðàäèåíò_168-3" cx="240.63" cy="7.87" r="4.57" xlink:href="#Áåçûìÿííûé_ãðàäèåíò_168"/><radialGradient id="Áåçûìÿííûé_ãðàäèåíò_168-4" cx="246.62" cy="61.18" r="1.34" xlink:href="#Áåçûìÿííûé_ãðàäèåíò_168"/><radialGradient id="Áåçûìÿííûé_ãðàäèåíò_168-5" cx="152.25" cy="48.07" r="1.34" xlink:href="#Áåçûìÿííûé_ãðàäèåíò_168"/><radialGradient id="Áåçûìÿííûé_ãðàäèåíò_168-6" cx="168.59" cy="12.43" r="1.34" xlink:href="#Áåçûìÿííûé_ãðàäèåíò_168"/><radialGradient id="Áåçûìÿííûé_ãðàäèåíò_168-7" cx="245.28" cy="73.31" r="1.34" xlink:href="#Áåçûìÿííûé_ãðàäèåíò_168"/><radialGradient id="Áåçûìÿííûé_ãðàäèåíò_168-8" cx="257.09" cy="59.84" r="1.34" xlink:href="#Áåçûìÿííûé_ãðàäèåíò_168"/><radialGradient id="Áåçûìÿííûé_ãðàäèåíò_168-9" cx="164.23" cy="53.23" r="1.34" xlink:href="#Áåçûìÿííûé_ãðàäèåíò_168"/><linearGradient id="linear-gradient-3" x1="61.17" y1="74.99" x2="52.94" y2="47.11" xlink:href="#linear-gradient-2"/></defs><g style="isolation:isolate"><g id="Layer_2" data-name="Layer 2"><g id="Layer_2-2" data-name="Layer 2"><path d="M83.72,47.4c-.87,11.62-7.61,17.25-14.08,20-7.85,3.39-16,3.94-24.11,3.86-3.1,0-6.25-.06-9.4-.11-4.79-.1-9.61-.29-14.37-.82-6.18-.68-13.09-2.09-18-8.51A18.13,18.13,0,0,1,.27,53,35.32,35.32,0,0,1,0,47.49v-.1c.08-2.78.4-5.65.76-8.49a72.41,72.41,0,0,1,2.6-12.28c.44-1.39.92-2.74,1.46-4a27.71,27.71,0,0,1,7.48-11C18,6.91,25.13,5,31.44,3.68c8.26-1.79,16.75-2.29,25-.05,6.27,1.71,12.81,4.71,17.8,11.26.5.65,1,1.34,1.45,2.06a52.13,52.13,0,0,1,5.79,12.72A52.84,52.84,0,0,1,83.62,40.3q.16,1.64.18,3.27v.14A34.85,34.85,0,0,1,83.72,47.4Z" style="fill:#02562c"/><path d="M83.8,42.24v.14c0,.48,0,1-.08,1.44-.87,11.25-7.61,16.69-14.08,19.39-7.85,3.29-16,3.82-24.11,3.73l-2.15,0c-7.13-.06-14.45-.1-21.62-.87-6.18-.66-13.09-2-18-8.24A17.23,17.23,0,0,1,.27,49.2,27.28,27.28,0,0,1,0,46v-.09A67,67,0,0,1,.77,35.58c.31-2.31.71-4.6,1.23-6.83v0c.39-1.72.85-3.4,1.37-5,.13-.4.26-.78.39-1.17l0,0a.55.55,0,0,1,0-.1l0-.08c.09-.27.18-.52.28-.78h0c.23-.64.49-1.27.76-1.89a27.62,27.62,0,0,1,6.73-9.91c.79-.66,1.42-1.14,1.76-1.38a.92.92,0,0,0,.17-.13l.1-.06c5.44-3.83,12-5.46,17.79-6.67,8.26-1.73,16.75-2.22,25-.05C63.34,3.27,70.56,6.59,75.7,14.34c.19.28.37.56.54.86h0a49.71,49.71,0,0,1,5.25,11.44A48.45,48.45,0,0,1,83.77,39C83.83,40.1,83.84,41.17,83.8,42.24Z" style="fill:#89f78d"/><path d="M83.8,41.65v.13c0,.29,0,.59,0,.87s0,.31,0,.47c-.87,10.5-7.61,15.58-14.08,18.1-7.85,3.07-16,3.56-24.11,3.49-.71,0-1.43,0-2.15,0-5.78-.05-11.68-.08-17.52-.48-1.38-.08-2.74-.19-4.1-.33-6.18-.61-13.09-1.89-18-7.69a15.5,15.5,0,0,1-3.45-8,23.94,23.94,0,0,1-.26-3v-.08a58.25,58.25,0,0,1,.76-9.66A63.08,63.08,0,0,1,2,29.07v0c.39-1.6.85-3.18,1.37-4.69q.19-.55.39-1.08l0,0a.55.55,0,0,1,0-.1l0-.07c.09-.25.18-.49.28-.73h0c.23-.6.49-1.18.76-1.76a25.7,25.7,0,0,1,6.73-9.25c.79-.62,1.42-1.07,1.76-1.28l.17-.13.1-.05c5.44-3.58,12-5.1,17.79-6.23,8.26-1.61,16.75-2.07,25,0,6.89,1.69,14.11,4.79,19.25,12,.19.26.37.53.54.8h0a45,45,0,0,1,5.25,10.68,42.51,42.51,0,0,1,2.28,11.54C83.83,39.65,83.84,40.66,83.8,41.65Z" style="fill:url(#linear-gradient)"/><path d="M0,45.36v.1c0-.27,0-.53,0-.8C0,44.89,0,45.13,0,45.36Z" style="fill:#ffc583"/><path d="M81.49,26.65C75,36.19,60.31,42.84,43.28,42.84c-18.75,0-34.61-8.05-39.91-19.14,2-6.05,4.86-11.27,8.94-14.53C18,4.62,25.13,2.81,31.44,1.49c8.26-1.73,16.75-2.22,25,0,6.89,1.81,14.1,5.14,19.25,12.89A49.81,49.81,0,0,1,81.49,26.65Z" style="mix-blend-mode:screen;fill:url(#Áåçûìÿííûé_ãðàäèåíò_172)"/><path d="M4.89,19.65a27.62,27.62,0,0,1,6.73-9.91c.79-.66,1.42-1.14,1.76-1.38a.92.92,0,0,0,.17-.13l.1-.06C16.56,11.13,4.36,25.53,4.89,19.65Z" style="fill:#fff"/><path d="M76.24,15.2a15.91,15.91,0,0,0-2-.72c-5.86-1.74-15.28-1-32.34,8-14.6,7.71-28.15,4-37.08-.54-.23-.13-.48-.25-.7-.38h0C6.06,16.41,8.72,12,12.31,9.17,18,4.62,25.13,2.82,31.44,1.5c8.26-1.73,16.75-2.22,25-.05C63.34,3.27,70.56,6.59,75.7,14.34,75.89,14.62,76.07,14.9,76.24,15.2Z" style="mix-blend-mode:multiply;opacity:0.5;fill:url(#linear-gradient-2)"/><path d="M2,28.75v0c.39-1.72.85-3.4,1.37-5,.13-.4.26-.78.39-1.17l0,0a.55.55,0,0,1,0-.1c.16-.35.69-1.34,1.05.62C5,23.88,2.43,31.52,2,28.75Z" style="fill:#fff"/><ellipse cx="9" cy="35.26" rx="0.72" ry="0.71" style="fill:#ffffab"/><ellipse cx="9" cy="35.26" rx="2.96" ry="2.94" style="mix-blend-mode:screen;fill:url(#Áåçûìÿííûé_ãðàäèåíò_168)"/><ellipse cx="71.46" cy="55.5" rx="0.72" ry="0.71" style="fill:#ffffab"/><ellipse cx="71.46" cy="55.5" rx="2.96" ry="2.94" style="mix-blend-mode:screen;fill:url(#Áåçûìÿííûé_ãðàäèåíò_168-2)"/><ellipse cx="63.39" cy="16.99" rx="0.72" ry="0.71" style="fill:#ffffab"/><ellipse cx="63.39" cy="16.99" rx="2.96" ry="2.94" style="mix-blend-mode:screen;fill:url(#Áåçûìÿííûé_ãðàäèåíò_168-3)"/><circle cx="67.27" cy="51.34" r="0.21" style="fill:#ffffab"/><ellipse cx="67.27" cy="51.34" rx="0.87" ry="0.86" style="mix-blend-mode:screen;fill:url(#Áåçûìÿííûé_ãðàäèåíò_168-4)"/><circle cx="6.04" cy="42.89" r="0.21" style="fill:#ffffab"/><ellipse cx="6.04" cy="42.89" rx="0.87" ry="0.86" style="mix-blend-mode:screen;fill:url(#Áåçûìÿííûé_ãðàäèåíò_168-5)"/><circle cx="16.64" cy="19.93" r="0.21" style="fill:#ffffab"/><ellipse cx="16.64" cy="19.93" rx="0.87" ry="0.86" style="mix-blend-mode:screen;fill:url(#Áåçûìÿííûé_ãðàäèåíò_168-6)"/><circle cx="66.4" cy="59.15" r="0.21" style="fill:#ffffab"/><ellipse cx="66.4" cy="59.15" rx="0.87" ry="0.86" style="mix-blend-mode:screen;fill:url(#Áåçûìÿííûé_ãðàäèåíò_168-7)"/><circle cx="74.07" cy="50.47" r="0.21" style="fill:#ffffab"/><ellipse cx="74.07" cy="50.47" rx="0.87" ry="0.86" style="mix-blend-mode:screen;fill:url(#Áåçûìÿííûé_ãðàäèåíò_168-8)"/><circle cx="13.81" cy="46.22" r="0.21" style="fill:#ffffab"/><ellipse cx="13.81" cy="46.22" rx="0.87" ry="0.86" style="mix-blend-mode:screen;fill:url(#Áåçûìÿííûé_ãðàäèåíò_168-9)"/><path d="M83.76,42.65c0,.16,0,.31,0,.47-.87,10.5-7.61,15.58-14.08,18.1-7.85,3.07-16,3.56-24.11,3.49-.71,0-1.43,0-2.15,0-5.78-.05-11.68-.08-17.52-.48a44.84,44.84,0,0,0,16.65-1.92c5.18-1.8,7.93-6.24,12.4-9.11C63.46,47.67,73.92,44.83,83.76,42.65Z" style="mix-blend-mode:multiply;opacity:0.5;fill:url(#linear-gradient-3)"/><path d="M63.34,32,43.82,16.51a2.24,2.24,0,0,0-2.77,0L21.54,32a1.25,1.25,0,0,0,.78,2.23h4.53V51.05a1.71,1.71,0,0,0,1.71,1.7h6a1.7,1.7,0,0,0,1.7-1.7V44.11a2.23,2.23,0,0,1,2.24-2.23h7.91a2.23,2.23,0,0,1,2.24,2.23v6.94a1.71,1.71,0,0,0,1.71,1.7h6a1.7,1.7,0,0,0,1.7-1.7V34.23h4.54A1.25,1.25,0,0,0,63.34,32Z" style="fill:#fff"/></g></g></g></svg>