<svg xmlns="http://www.w3.org/2000/svg" xmlns:xlink="http://www.w3.org/1999/xlink" viewBox="0 0 117.47 97.4"><defs><radialGradient id="radial-gradient" cx="411.67" cy="61.51" r="86.1" gradientTransform="translate(-209.66 20.57) scale(0.65 0.67)" gradientUnits="userSpaceOnUse"><stop offset="0" stop-color="#bf3000"/><stop offset="0.41" stop-color="#bf3202"/><stop offset="0.55" stop-color="#c13709"/><stop offset="0.66" stop-color="#c44114"/><stop offset="0.74" stop-color="#c84e25"/><stop offset="0.82" stop-color="#ce603b"/><stop offset="0.88" stop-color="#d57656"/><stop offset="0.92" stop-color="#db8a6f"/><stop offset="0.93" stop-color="#de937a"/><stop offset="0.95" stop-color="#e5ab98"/><stop offset="0.98" stop-color="#f1d3c8"/><stop offset="1" stop-color="#fff"/></radialGradient><radialGradient id="radial-gradient-2" cx="413.63" cy="53.28" r="89.66" gradientTransform="translate(-209.66 22.78) scale(0.65 0.57)" xlink:href="#radial-gradient"/><radialGradient id="Áåçûìÿííûé_ãðàäèåíò_163" cx="360.45" cy="72.76" r="67.62" gradientTransform="translate(-209.66) scale(0.65 1)" gradientUnits="userSpaceOnUse"><stop offset="0" stop-color="#ffbd00"/><stop offset="1" stop-color="#ff772c"/></radialGradient><linearGradient id="Áåçûìÿííûé_ãðàäèåíò_169" x1="59.34" y1="93.45" x2="57.66" y2="-3.54" gradientUnits="userSpaceOnUse"><stop offset="0" stop-color="#fc0"/><stop offset="1" stop-color="#ff9700"/></linearGradient><linearGradient id="Áåçûìÿííûé_ãðàäèåíò_172" x1="59.01" y1="-4.28" x2="59.43" y2="44.54" gradientUnits="userSpaceOnUse"><stop offset="0" stop-color="#ff9840"/><stop offset="0.1" stop-color="#ef8e3c"/><stop offset="0.29" stop-color="#c57531"/><stop offset="0.55" stop-color="#814d20"/><stop offset="0.88" stop-color="#241609"/><stop offset="1"/></linearGradient><linearGradient id="Áåçûìÿííûé_ãðàäèåíò_228" x1="6.43" y1="19.47" x2="112.56" y2="19.47" gradientUnits="userSpaceOnUse"><stop offset="0" stop-color="#23786e"/><stop offset="0.18" stop-color="#1e685f"/><stop offset="0.54" stop-color="#123e39"/><stop offset="1"/></linearGradient><linearGradient id="Áåçûìÿííûé_ãðàäèåíò_228-2" x1="65.59" y1="76.31" x2="95.24" y2="20.84" xlink:href="#Áåçûìÿííûé_ãðàäèåíò_228"/><radialGradient id="Áåçûìÿííûé_ãðàäèåíò_168" cx="347.86" cy="41.88" r="5.61" gradientTransform="translate(-209.66 20.44) scale(0.65 0.64)" gradientUnits="userSpaceOnUse"><stop offset="0" stop-color="#00b359"/><stop offset="0.13" stop-color="#009148"/><stop offset="0.34" stop-color="#005e2f"/><stop offset="0.54" stop-color="#00351a"/><stop offset="0.73" stop-color="#00180c"/><stop offset="0.89" stop-color="#000603"/><stop offset="1"/></radialGradient><radialGradient id="Áåçûìÿííûé_ãðàäèåíò_168-2" cx="466.05" cy="80.45" r="5.61" xlink:href="#Áåçûìÿííûé_ãðàäèåíò_168"/><radialGradient id="Áåçûìÿííûé_ãðàäèåíò_168-3" cx="450.78" cy="7.06" r="5.61" xlink:href="#Áåçûìÿííûé_ãðàäèåíò_168"/><radialGradient id="Áåçûìÿííûé_ãðàäèåíò_168-4" cx="458.13" cy="72.52" r="1.65" xlink:href="#Áåçûìÿííûé_ãðàäèåíò_168"/><radialGradient id="Áåçûìÿííûé_ãðàäèåíò_168-5" cx="342.25" cy="56.42" r="1.65" xlink:href="#Áåçûìÿííûé_ãðàäèåíò_168"/><radialGradient id="Áåçûìÿííûé_ãðàäèåíò_168-6" cx="362.32" cy="12.66" r="1.65" xlink:href="#Áåçûìÿííûé_ãðàäèåíò_168"/><radialGradient id="Áåçûìÿííûé_ãðàäèåíò_168-7" cx="456.48" cy="87.41" r="1.65" xlink:href="#Áåçûìÿííûé_ãðàäèåíò_168"/><radialGradient id="Áåçûìÿííûé_ãðàäèåíò_168-8" cx="470.99" cy="70.88" r="1.65" xlink:href="#Áåçûìÿííûé_ãðàäèåíò_168"/><radialGradient id="Áåçûìÿííûé_ãðàäèåíò_168-9" cx="356.97" cy="62.76" r="1.65" xlink:href="#Áåçûìÿííûé_ãðàäèåíò_168"/></defs><g style="isolation:isolate"><g id="Layer_2" data-name="Layer 2"><g id="Layer_2-2" data-name="Layer 2"><path d="M117.31,64.66c-1.21,15.92-10.66,23.63-19.72,27.45-11,4.65-22.46,5.41-33.79,5.28-10.95-.12-22.26-.08-33.3-1.27C23.61,95.39,16.07,94,9.79,89.05h0A27.62,27.62,0,0,1,5.2,84.46,24.64,24.64,0,0,1,.37,72.28c-.81-6-.17-12.71.7-19.29C3.08,37.75,8,23.06,17.25,15.6c8-6.44,18-9,26.79-10.87,11.59-2.45,23.5-3.14,35.06-.06,9.66,2.56,19.76,7.28,27,18.25a73.7,73.7,0,0,1,10.71,28.62A58.92,58.92,0,0,1,117.31,64.66Z" style="mix-blend-mode:screen;opacity:0.51;fill:url(#radial-gradient)"/><path d="M117.31,62C116.1,78,106.65,85.67,97.59,89.5c-11,4.64-22.46,5.4-33.79,5.27-10.95-.12-22.26-.08-33.3-1.27-8.67-.93-18.36-2.85-25.3-11.66A24.64,24.64,0,0,1,.37,69.66c-.81-6-.17-12.71.7-19.29A89.84,89.84,0,0,1,6.43,28.78C9.07,22.26,12.62,16.71,17.25,13c8-6.44,18-9,26.79-10.87C55.63-.33,67.54-1,79.1,2.05c9.66,2.57,19.76,7.28,27,18.25a68.3,68.3,0,0,1,6.48,12.77C116,41.9,118.06,52.21,117.31,62Z" style="mix-blend-mode:screen;opacity:0.39;fill:url(#radial-gradient-2)"/><path d="M110.06,62.29C109,76.1,100.72,82.79,92.78,86.1c-9.63,4-19.68,4.69-29.61,4.58-9.59-.1-19.49-.06-29.17-1.1-7.6-.81-16.08-2.48-22.17-10.12A21.22,21.22,0,0,1,7.6,68.9c-.72-5.24-.14-11,.62-16.72a82.63,82.63,0,0,1,3.19-14.59c2.4-7.43,6-13.84,11-17.84,7-5.59,15.74-7.81,23.48-9.43C56,8.2,66.44,7.6,76.58,10.27c8.47,2.22,17.32,6.31,23.64,15.83a60.81,60.81,0,0,1,7.1,15.11A56.13,56.13,0,0,1,110.06,62.29Z" style="fill:url(#Áåçûìÿííûé_ãðàäèåíò_163)"/><path d="M110.06,59.67c-1.06,13.81-9.34,20.5-17.28,23.81-9.63,4-19.68,4.69-29.61,4.59C53.58,88,43.68,88,34,87c-7.6-.82-16.08-2.49-22.17-10.13A21.22,21.22,0,0,1,7.6,66.28c-.72-5.24-.14-11,.62-16.72A82.63,82.63,0,0,1,11.41,35c2.4-7.43,6-13.84,11-17.84,7-5.59,15.74-7.8,23.48-9.43C56,5.58,66.44,5,76.58,7.65,85.05,9.88,93.9,14,100.22,23.48a61,61,0,0,1,7.1,15.11A56.13,56.13,0,0,1,110.06,59.67Z" style="fill:url(#Áåçûìÿííûé_ãðàäèåíò_169)"/><path d="M107.32,38.59c-8,11.72-26,19.89-46.91,19.89-23,0-42.49-9.89-49-23.51,2.4-7.43,6-13.84,11-17.84,7-5.59,15.74-7.8,23.48-9.43C56,5.58,66.44,5,76.58,7.65,85.05,9.88,93.9,14,100.22,23.48A61,61,0,0,1,107.32,38.59Z" style="mix-blend-mode:screen;fill:url(#Áåçûìÿííûé_ãðàäèåíò_172)"/><path d="M24,15.9S13.91,22.78,13.27,30,27.6,19.54,24,15.9Z" style="fill:#fff"/><path d="M11.9,33.52s-2.7,4.13-2.18,7.62,3.72-6,3.53-7C12.72,31.32,11.9,33.52,11.9,33.52Z" style="fill:#fff"/><path d="M110.06,59.67s-1.45,11.47-6,15.73S110.06,59.67,110.06,59.67Z" style="fill:#fff"/><path d="M112.56,33.07h0l-6-4.95c-6-4.95-16.41-11.25-47.78,5.33-22.19,11.72-42.39,2-52.3-4.68C9.07,22.26,12.62,16.71,17.25,13c8-6.44,18-9,26.79-10.87C55.63-.33,67.54-1,79.1,2.05c9.66,2.57,19.76,7.28,27,18.25A68.3,68.3,0,0,1,112.56,33.07Z" style="mix-blend-mode:screen;opacity:0.5;fill:url(#Áåçûìÿííûé_ãðàäèåíò_228)"/><path d="M117.31,64.66c-1.21,15.92-10.66,23.63-19.72,27.45-11,4.65-22.46,5.41-33.79,5.28-10.95-.12-22.26-.08-33.3-1.27C23.61,95.39,16.07,94,9.79,89.05c13.77,2.36,50.94,7.12,59.62-8.33,9.24-16.44,39.27-26.67,47.38-29.18A58.92,58.92,0,0,1,117.31,64.66Z" style="mix-blend-mode:screen;opacity:0.5;fill:url(#Áåçûìÿííûé_ãðàäèåíò_228-2)"/><ellipse cx="16.05" cy="47.42" rx="0.88" ry="0.87" style="fill:#ffffab"/><ellipse cx="16.05" cy="47.42" rx="3.64" ry="3.61" style="mix-blend-mode:screen;fill:url(#Áåçûìÿííûé_ãðàäèåíò_168)"/><ellipse cx="92.75" cy="72.27" rx="0.88" ry="0.87" style="fill:#ffffab"/><ellipse cx="92.75" cy="72.27" rx="3.64" ry="3.61" style="mix-blend-mode:screen;fill:url(#Áåçûìÿííûé_ãðàäèåíò_168-2)"/><ellipse cx="82.84" cy="24.99" rx="0.88" ry="0.87" style="fill:#ffffab"/><ellipse cx="82.84" cy="24.99" rx="3.64" ry="3.61" style="mix-blend-mode:screen;fill:url(#Áåçûìÿííûé_ãðàäèåíò_168-3)"/><circle cx="87.61" cy="67.16" r="0.26" style="fill:#ffffab"/><ellipse cx="87.61" cy="67.16" rx="1.07" ry="1.06" style="mix-blend-mode:screen;fill:url(#Áåçûìÿííûé_ãðàäèåíò_168-4)"/><circle cx="12.42" cy="56.79" r="0.26" style="fill:#ffffab"/><ellipse cx="12.42" cy="56.79" rx="1.07" ry="1.06" style="mix-blend-mode:screen;fill:url(#Áåçûìÿííûé_ãðàäèåíò_168-5)"/><circle cx="25.44" cy="28.6" r="0.26" style="fill:#ffffab"/><ellipse cx="25.44" cy="28.6" rx="1.07" ry="1.06" style="mix-blend-mode:screen;fill:url(#Áåçûìÿííûé_ãðàäèåíò_168-6)"/><circle cx="86.54" cy="76.75" r="0.26" style="fill:#ffffab"/><ellipse cx="86.54" cy="76.75" rx="1.07" ry="1.06" style="mix-blend-mode:screen;fill:url(#Áåçûìÿííûé_ãðàäèåíò_168-7)"/><circle cx="95.95" cy="66.1" r="0.26" style="fill:#ffffab"/><ellipse cx="95.95" cy="66.1" rx="1.07" ry="1.06" style="mix-blend-mode:screen;fill:url(#Áåçûìÿííûé_ãðàäèåíò_168-8)"/><circle cx="21.96" cy="60.87" r="0.26" style="fill:#ffffab"/><ellipse cx="21.96" cy="60.87" rx="1.07" ry="1.06" style="mix-blend-mode:screen;fill:url(#Áåçûìÿííûé_ãðàäèåíò_168-9)"/><path d="M35.72,47.42,58.49,34.18a3.36,3.36,0,0,1,5,2.9l0,6.21,14.18,0a1.32,1.32,0,0,1,1.32,1.32l0,11.37a1.32,1.32,0,0,1-1.32,1.32l-14.17,0,0,6.12a3.36,3.36,0,0,1-5,2.92L35.74,53.24A3.36,3.36,0,0,1,35.72,47.42Z" style="fill:#fff"/></g></g></g></svg>